<?xml version="1.0" encoding="UTF-8"?>
<svg width="233px" height="31px" viewBox="0 0 233 31" version="1.1" xmlns="http://www.w3.org/2000/svg" xmlns:xlink="http://www.w3.org/1999/xlink">
    <!-- Generator: sketchtool 54.1 (76490) - https://sketchapp.com -->
    <title>E699AC80-995C-40D7-A818-0A6F3FD11A05@1x</title>
    <desc>Created with sketchtool.</desc>
    <g id="Page-1" stroke="none" stroke-width="1" fill="none" fill-rule="evenodd">
        <g id="Created-post" transform="translate(-375.000000, -20.000000)" fill-rule="nonzero">
            <g id="Group-6">
                <g id="Logo_Small_Horizontal_2" transform="translate(375.000000, 20.000000)">
                    <g id="Group" transform="translate(48.000000, 0.000000)" fill="#5A5145">
                        <polygon id="Path" points="18 7.8 11.2 23.6 7.4 23.6 0.6 7.8 4.4 7.8 9.4 19.6 14.4 7.8"></polygon>
                        <path d="M19.4,3 C19.4,1.8 20.4,0.8 21.8,0.8 C23.2,0.8 24.2,1.8 24.2,3 C24.2,4.4 23.2,5.4 21.8,5.4 C20.4,5.2 19.4,4.2 19.4,3 Z M19.8,7.8 L23.6,7.8 L23.6,23.6 L19.8,23.6 L19.8,7.8 Z" id="Shape"></path>
                        <polygon id="Path" points="27.4 1.8 31.2 1.8 31.2 23.8 27.4 23.8"></polygon>
                        <path d="M61.6,14.6 L61.6,23.6 L57.8,23.6 L57.8,15.2 C57.8,12.4 56.4,11 54.2,11 C51.8,11 50,12.6 50,15.8 L50,23.8 L46.2,23.8 L46.2,15.2 C46.2,12.4 44.8,11 42.6,11 C40.2,11 38.4,12.6 38.4,15.8 L38.4,23.8 L34.6,23.8 L34.6,7.8 L38.2,7.8 L38.2,9.8 C39.4,8.4 41.2,7.6 43.4,7.6 C45.8,7.6 47.6,8.4 48.8,10.2 C50,8.6 52.2,7.6 54.8,7.6 C58.8,7.8 61.6,9.8 61.6,14.6 Z" id="Path"></path>
                        <path d="M78.8,14.4 L78.8,23.6 L75.2,23.6 L75.2,21.6 C74.4,23 72.6,23.8 70.2,23.8 C66.6,23.8 64.2,21.8 64.2,19 C64.2,16.4 66,14.2 70.8,14.2 L74.8,14.2 L74.8,14.2 C74.8,12 73.4,10.8 70.8,10.8 C69,10.8 67.2,11.4 66,12.4 L64.6,9.6 C66.2,8.2 68.8,7.6 71.4,7.6 C76,7.8 78.8,9.8 78.8,14.4 Z M75,18.8 L75,17 L71.2,17 C68.6,17 68,18 68,19.2 C68,20.6 69.2,21.4 71,21.4 C72.8,21.2 74.4,20.4 75,18.8 Z" id="Shape"></path>
                        <path d="M92,22.8 C91.2,23.6 89.8,23.8 88.4,23.8 C85,23.8 83,22 83,18.4 L83,11 L80.4,11 L80.4,8 L83,8 L83,4.4 L86.8,4.4 L86.8,8 L91,8 L91,11 L86.8,11 L86.8,18.6 C86.8,20.2 87.6,21 89,21 C89.8,21 90.6,20.8 91,20.4 L92,22.8 Z" id="Path"></path>
                        <path d="M108.6,17 L96,17 C96.4,19.4 98.4,20.8 101.2,20.8 C103,20.8 104.4,20.2 105.6,19 L107.6,21.2 C106,23 103.8,24 101.2,24 C95.8,24 92.4,20.6 92.4,15.8 C92.4,11 95.8,7.6 100.6,7.6 C105.2,7.6 108.6,10.8 108.6,15.8 C108.6,16.2 108.6,16.6 108.6,17 Z M96,14.6 L105,14.6 C104.8,12.4 103,10.8 100.6,10.8 C98.2,10.6 96.4,12.2 96,14.6 Z" id="Shape"></path>
                    </g>
                    <path d="M32.8,9 C32.8,8.8 32.8,8.8 32.8,8.6 C32.8,8.4 32.8,8.4 32.6,8.2 C32.6,8.2 32.4,8 32.4,8 C32.4,8 32.2,8 32.2,7.8 L32,7.8 C32,7.8 31.8,7.8 31.6,7.6 C31.6,7.6 31.4,7.6 31.4,7.6 L1.4,7.6 C1.4,7.6 1.2,7.6 1,7.6 C1,7.6 1,7.6 0.8,7.6 L0.6,7.6 L0.6,8 C0.6,8 0.4,8 0.4,8.2 C0.4,8.2 0.2,8.4 0.2,8.4 C0.2,8.4 0.2,8.6 0,8.8 C0,9 0,9 0,9 L0,19.4 C0,19.8 0.2,20.2 0.6,20.4 L15.6,30.6 L15.6,30.6 L15.8,30.6 C15.8,30.6 15.8,30.6 16,30.6 C16.2,30.6 16.2,30.6 16.4,30.6 C16.6,30.6 16.6,30.6 16.8,30.6 C16.8,30.6 16.8,30.6 17,30.6 L32.2,20.4 C32.6,20.2 32.8,19.8 32.8,19.4 L32.8,9 Z M15.2,20 L15.2,27 L2.8,18.6 L2.8,11.4 L15.2,20 Z M27.2,10.4 L16.4,17.6 L5.6,10.4 L27.2,10.4 Z M30.2,11.4 L30.2,18.4 L17.8,26.8 L17.8,20 L30.2,11.4 Z" id="Shape" fill="#009C98"></path>
                    <g id="Group" transform="translate(172.000000, 6.000000)" fill="#5A5145">
                        <path d="M2.2,6 C1.6,6 1,5.8 0.6,5.6 L0,6.2 C0.4,6.6 1.2,6.8 2,6.8 C3.2,6.8 4,6.2 4,5.4 C4,3.6 1,4.4 1,3.4 C1,3 1.4,2.8 2.2,2.8 C2.6,2.8 3.2,2.8 3.6,3.2 L4,2.4 C3.6,2.2 2.8,2 2.2,2 C1,2 0.2,2.6 0.2,3.4 C0.2,5.2 3.2,4.4 3.2,5.4 C3.2,5.8 2.8,6 2.2,6 Z" id="Path"></path>
                        <path d="M9.6,4.4 C9.6,3 8.6,2 7.2,2 C5.8,2 4.8,3 4.8,4.4 C4.8,5.8 5.8,6.8 7.2,6.8 C8.6,6.8 9.6,5.8 9.6,4.4 Z M5.6,4.4 C5.6,3.4 6.2,2.8 7.2,2.8 C8.2,2.8 8.8,3.4 8.8,4.4 C8.8,5.4 8,6 7.2,6 C6.4,6 5.6,5.4 5.6,4.4 Z" id="Shape"></path>
                        <path d="M11,6.8 L11.8,6.8 L11.8,2.8 L13.2,2.8 L13.4,2.8 L14,2.8 L14,5.4 C14,6.4 14.6,6.8 15.4,6.8 C15.8,6.8 16.2,6.6 16.4,6.4 L16.2,5.8 C16.2,6 16,6 15.6,6 C15.2,6 14.8,5.8 14.8,5.2 L14.8,2.8 L16.2,2.8 L16.2,2 L14.8,2 L14.8,1 L14,1 L14,2 L13.2,2 L13,2 L11.6,2 L11.6,1.6 C11.6,1 11.8,0.8 12.4,0.8 C12.6,0.8 12.8,0.8 13,1 L13.2,0.4 C13.2,0.2 12.8,0 12.4,0 C11.4,0 10.8,0.6 10.8,1.6 L10.8,2 L10,2 L10,2.8 L10.8,2.8 L10.8,6.8 L11,6.8 Z" id="Path"></path>
                        <polygon id="Path" points="24.8 2 24 2 22.6 5.8 21.2 2 20.4 2 19 5.8 17.6 2 16.8 2 18.6 6.8 19.4 6.8 20.8 3.2 22.2 6.8 23 6.8"></polygon>
                        <path d="M27,4 C25.6,4 25.2,4.6 25.2,5.4 C25.2,6.2 25.8,6.8 27,6.8 C27.8,6.8 28.2,6.6 28.6,6.2 L28.6,6.8 L29.4,6.8 L29.4,3.8 C29.4,2.6 28.6,1.8 27.4,1.8 C26.6,1.8 26,2 25.4,2.4 L25.8,3 C26.2,2.6 26.8,2.4 27.2,2.4 C28,2.4 28.4,2.8 28.4,3.6 L28.4,4 L27,4 Z M28.4,5.2 C28.2,5.8 27.6,6 27,6 C26.4,6 26,5.8 26,5.2 C26,4.8 26.2,4.4 27,4.4 L28.4,4.4 L28.4,5.2 Z" id="Shape"></path>
                        <path d="M31.6,4.4 C31.6,3.4 32.2,2.8 33,2.8 C33,2.8 33.2,2.8 33.2,2.8 L33.2,2 C32.4,2 31.8,2.2 31.4,2.8 L31.4,2 L30.6,2 L30.6,6.8 L31.4,6.8 L31.4,4.4 L31.6,4.4 Z" id="Path"></path>
                        <path d="M37.8,5.4 C37.4,5.8 37,6 36.4,6 C35.4,6 34.8,5.4 34.6,4.6 L38.4,4.6 C38.4,4.6 38.4,4.4 38.4,4.4 C38.4,3 37.4,2 36,2 C34.6,2 33.6,3 33.6,4.4 C33.6,5.8 34.6,6.8 36.2,6.8 C37,6.8 37.6,6.6 38,6 L37.8,5.4 Z M36.2,2.6 C37,2.6 37.6,3.2 37.8,4 L34.8,4 C34.8,3.2 35.4,2.6 36.2,2.6 Z" id="Shape"></path>
                        <path d="M4.2,13.4 C3.8,12.8 3.2,12.6 2.6,12.6 C1.2,12.6 0.2,13.6 0.2,15 C0.2,16.4 1.2,17.4 2.6,17.4 C3.2,17.4 4,17.2 4.2,16.6 L4.2,17.4 L5,17.4 L5,10.8 L4.2,10.8 L4.2,13.4 Z M2.8,16.8 C1.8,16.8 1.2,16.2 1.2,15.2 C1.2,14.2 1.8,13.6 2.8,13.6 C3.8,13.6 4.4,14.2 4.4,15.2 C4.4,16.2 3.6,16.8 2.8,16.8 Z" id="Shape"></path>
                        <path d="M8.6,12.6 C7.2,12.6 6.2,13.6 6.2,15 C6.2,16.4 7.2,17.4 8.8,17.4 C9.6,17.4 10.2,17.2 10.6,16.6 L10.2,16 C9.8,16.4 9.4,16.6 8.8,16.6 C7.8,16.6 7.2,16 7,15.2 L10.8,15.2 C10.8,15.2 10.8,15 10.8,15 C11,13.6 10,12.6 8.6,12.6 Z M7.2,14.8 C7.2,14 7.8,13.4 8.8,13.4 C9.6,13.4 10.2,14 10.4,14.8 L7.2,14.8 Z" id="Shape"></path>
                        <polygon id="Path" points="13.8 16.4 12.2 12.8 11.4 12.8 13.4 17.4 14.2 17.4 16.4 12.8 15.4 12.8"></polygon>
                        <path d="M19,12.6 C17.6,12.6 16.6,13.6 16.6,15 C16.6,16.4 17.6,17.4 19.2,17.4 C20,17.4 20.6,17.2 21,16.6 L20.6,16 C20.2,16.4 19.8,16.6 19.2,16.6 C18.2,16.6 17.6,16 17.4,15.2 L21.2,15.2 C21.2,15.2 21.2,15 21.2,15 C21.2,13.6 20.2,12.6 19,12.6 Z M17.4,14.8 C17.4,14 18,13.4 19,13.4 C19.8,13.4 20.4,14 20.6,14.8 L17.4,14.8 Z" id="Shape"></path>
                        <rect id="Rectangle" x="22.4" y="10.8" width="1" height="6.6"></rect>
                        <path d="M27,12.6 C25.6,12.6 24.6,13.6 24.6,15 C24.6,16.4 25.6,17.4 27,17.4 C28.4,17.4 29.4,16.4 29.4,15 C29.4,13.6 28.4,12.6 27,12.6 Z M27,16.8 C26,16.8 25.4,16.2 25.4,15.2 C25.4,14.2 26,13.6 27,13.6 C28,13.6 28.6,14.2 28.6,15.2 C28.6,16.2 27.8,16.8 27,16.8 Z" id="Shape"></path>
                        <path d="M33,12.6 C32.4,12.6 31.6,12.8 31.4,13.4 L31.4,12.6 L30.6,12.6 L30.6,19 L31.4,19 L31.4,16.6 C31.8,17.2 32.4,17.4 33,17.4 C34.4,17.4 35.4,16.4 35.4,15 C35.4,13.6 34.4,12.6 33,12.6 Z M33,16.8 C32,16.8 31.4,16.2 31.4,15.2 C31.4,14.2 32,13.6 33,13.6 C34,13.6 34.6,14.2 34.6,15.2 C34.6,16 34,16.8 33,16.8 Z" id="Shape"></path>
                        <path d="M42.6,12.6 C41.8,12.6 41.2,13 40.8,13.4 C40.4,12.8 39.8,12.6 39.2,12.6 C38.4,12.6 38,12.8 37.6,13.4 L37.6,12.6 L36.8,12.6 L36.8,17.4 L37.6,17.4 L37.6,15 C37.6,14 38.2,13.4 39,13.4 C39.8,13.4 40.2,13.8 40.2,14.8 L40.2,17.4 L41,17.4 L41,15 C41,14 41.6,13.4 42.4,13.4 C43.2,13.4 43.6,13.8 43.6,14.8 L43.6,17.4 L44.4,17.4 L44.4,14.6 C44.6,13.4 43.8,12.6 42.6,12.6 Z" id="Path"></path>
                        <path d="M48,12.6 C46.6,12.6 45.6,13.6 45.6,15 C45.6,16.4 46.6,17.4 48.2,17.4 C49,17.4 49.6,17.2 50,16.6 L49.6,16 C49.2,16.4 48.8,16.6 48.2,16.6 C47.2,16.6 46.6,16 46.4,15.2 L50.2,15.2 C50.2,15.2 50.2,15 50.2,15 C50.4,13.6 49.4,12.6 48,12.6 Z M46.6,14.8 C46.6,14 47.2,13.4 48.2,13.4 C49,13.4 49.6,14 49.8,14.8 L46.6,14.8 Z" id="Shape"></path>
                        <path d="M54,12.6 C53.2,12.6 52.6,12.8 52.2,13.4 L52.2,12.6 L51.4,12.6 L51.4,17.4 L52.2,17.4 L52.2,15 C52.2,14 52.8,13.4 53.6,13.4 C54.4,13.4 54.8,13.8 54.8,14.8 L54.8,17.4 L55.6,17.4 L55.6,14.6 C56,13.4 55.2,12.6 54,12.6 Z" id="Path"></path>
                        <path d="M60,16.6 C59.8,16.8 59.6,16.8 59.4,16.8 C59,16.8 58.6,16.6 58.6,16 L58.6,13.4 L60,13.4 L60,12.6 L58.6,12.6 L58.6,11.6 L57.8,11.6 L57.8,12.6 L57,12.6 L57,13.4 L57.8,13.4 L57.8,16 C57.8,17 58.4,17.4 59.2,17.4 C59.6,17.4 60,17.2 60.2,17 L60,16.6 Z" id="Path"></path>
                    </g>
                </g>
            </g>
        </g>
    </g>
</svg>