<?xml version="1.0" encoding="UTF-8"?>
<svg width="18px" height="18px" viewBox="0 0 18 18" version="1.1" xmlns="http://www.w3.org/2000/svg" xmlns:xlink="http://www.w3.org/1999/xlink">
    <g id="Page-1" stroke="none" stroke-width="1" fill="none" fill-rule="evenodd">
        <g id="Created-post" transform="translate(-1516.000000, -26.000000)" fill="#8B8B8B" fill-rule="nonzero">
            <g id="Group-6">
                <g id="Group-5" transform="translate(1407.000000, 15.000000)">
                    <g id="avatar" transform="translate(98.000000, 0.000000)">
                        <g id="user" transform="translate(11.000000, 11.000000)">
                            <path d="M14.6323661,11.0819196 C13.6987835,10.1483705 12.5875781,9.45726562 11.3751897,9.03890625 C12.6736942,8.14456473 13.5267857,6.6478125 13.5267857,4.95535714 C13.5267857,2.22297991 11.3038058,0 8.57142857,0 C5.83905134,0 3.61607143,2.22297991 3.61607143,4.95535714 C3.61607143,6.6478125 4.46916295,8.14456473 5.76770089,9.03890625 C4.5553125,9.45726562 3.44410714,10.1483705 2.51052455,11.0819196 C0.968595512,12.6238806 0.0864575638,14.6498037 0.00603308939,16.8171487 C0.00436037451,16.8622264 0.0029477641,17.0330325 0.00179525817,17.329567 L0.00181055359,17.3295671 C0.000377051089,17.6984007 0.298213675,17.9985615 0.667047271,17.999995 C0.667912462,17.9999983 0.668777659,18 0.669642857,18 L0.669642857,18 C1.03942191,18 1.33960912,17.7010349 1.3411176,17.3312589 C1.34230691,17.0470537 1.34372149,16.8845324 1.34539126,16.8436951 C1.50279726,12.9940398 4.68380824,9.91071429 8.57142857,9.91071429 C12.4457562,9.91071429 15.6182983,12.9729905 15.7957453,16.8042333 C15.7979291,16.8513827 15.7997726,17.0270958 15.801276,17.3313725 L15.8012752,17.3313725 C15.8031023,17.7011785 16.1034039,18 16.4732143,18 L16.4732143,18 C16.8417834,18 17.1405677,17.7012157 17.1405677,17.3326466 C17.1405677,17.3315749 17.1405651,17.3305033 17.14056,17.3294317 C17.1390381,17.008209 17.1371296,16.8210499 17.1348599,16.7679543 C17.0430067,14.6191599 16.1625914,12.6122083 14.6323661,11.0819196 Z M8.57142857,8.57142857 C6.57753348,8.57142857 4.95535714,6.94928571 4.95535714,4.95535714 C4.95535714,2.96142857 6.57753348,1.33928571 8.57142857,1.33928571 C10.5653237,1.33928571 12.1875,2.96142857 12.1875,4.95535714 C12.1875,6.94928571 10.5653237,8.57142857 8.57142857,8.57142857 Z" id="Shape"></path>
                        </g>
                    </g>
                </g>
            </g>
        </g>
    </g>
</svg>